<svg width="25" height="24" viewBox="0 0 25 24" fill="none" xmlns="http://www.w3.org/2000/svg">
<path d="M20.559 17.586C20.2507 18.2848 19.8858 18.9279 19.4628 19.5194C18.8864 20.3255 18.4145 20.8834 18.0507 21.1934C17.4869 21.702 16.8828 21.9624 16.2359 21.9772C15.7715 21.9772 15.2114 21.8477 14.5595 21.5847C13.9054 21.3229 13.3043 21.1934 12.7547 21.1934C12.1783 21.1934 11.5601 21.3229 10.8988 21.5847C10.2366 21.8477 9.70305 21.9847 9.29514 21.9983C8.67481 22.0241 8.05648 21.7562 7.43927 21.1934C7.04534 20.8563 6.55262 20.2785 5.96234 19.4601C5.32903 18.586 4.80837 17.5724 4.40047 16.4169C3.96362 15.1688 3.74463 13.9602 3.74463 12.7901C3.74463 11.4498 4.03989 10.2938 4.63129 9.32506C5.09608 8.54695 5.71441 7.93313 6.4883 7.48254C7.2622 7.03194 8.09838 6.80231 8.99889 6.78761C9.49162 6.78761 10.1378 6.93713 10.9407 7.23094C11.7414 7.52574 12.2555 7.67525 12.481 7.67525C12.6495 7.67525 13.2206 7.50043 14.1888 7.15193C15.1044 6.82874 15.8772 6.69491 16.5103 6.74762C18.2257 6.88342 19.5145 7.54673 20.3715 8.74176C18.8373 9.65358 18.0784 10.9307 18.0935 12.569C18.1074 13.8452 18.5793 14.9071 19.5069 15.7503C19.9272 16.1416 20.3967 16.4441 20.919 16.6589C20.8058 16.9811 20.6861 17.2897 20.559 17.586ZM16.6248 2.40011C16.6248 3.40034 16.2522 4.33425 15.5097 5.19867C14.6136 6.22628 13.5297 6.82009 12.3543 6.7264C12.3394 6.6064 12.3307 6.4801 12.3307 6.34739C12.3307 5.38718 12.7568 4.35955 13.5136 3.51934C13.8914 3.09392 14.372 2.74019 14.9547 2.45801C15.5361 2.18005 16.0861 2.02632 16.6034 2C16.6185 2.13371 16.6248 2.26744 16.6248 2.4001V2.40011Z" fill="white"/>
</svg>
