<svg width="801" height="610" viewBox="0 0 801 610" fill="none" xmlns="http://www.w3.org/2000/svg">
<path d="M320.666 192C320.666 115.826 268.865 62.5064 193.452 62.5064C119.559 62.5064 68.5187 115.066 68.5187 192C68.5187 268.946 119.559 321.506 193.452 321.506C268.865 321.506 320.666 268.173 320.666 192ZM386.932 41.933V342.826C386.932 364.92 373.986 378.626 353.412 378.626C332.852 378.626 320.666 364.92 320.666 342.826V337.48V328.106C291.706 366.946 242.212 383.213 181.266 383.213C73.0923 383.213 0.71875 307.026 0.71875 192C0.71875 77.7463 73.0923 0.799622 181.266 0.799622C242.212 0.799622 291.706 17.8131 320.666 55.9064V41.933C320.666 19.0796 332.852 5.35953 353.412 5.35953C373.986 5.35953 386.932 19.0796 386.932 41.933Z" fill="#FCFCFC"/>
<path d="M767.881 316.787H543.387C609.241 223.28 690.987 132.841 784.987 67.1072C792.521 60.8672 796.867 48.1739 796.867 38.1072C796.867 21.2538 786.681 8.5202 768.494 5.85355C766.187 5.48019 763.641 5.36032 761.094 5.36032H500.574C479.948 5.36032 467.827 17.6135 467.827 36.6535C467.827 55.6935 479.948 67.1072 500.574 67.1072H679.708C596.268 136.227 523.854 227.04 465.281 318.734C465.161 318.854 456.947 331.08 456.427 345.654C455.801 362.867 466.974 375.734 486.014 378.04H486.508C488.321 378.28 490.267 378.4 492.201 378.4H767.881C788.508 378.4 800.627 367 800.627 347.96C800.627 328.187 788.508 316.787 767.881 316.787Z" fill="#FCFCFC"/>
<path d="M800.68 498.466C800.68 510.333 794.213 521.4 783.626 526.773C682.186 578.2 548 609.453 400.68 609.453C253.36 609.453 119.173 578.2 17.7328 526.773C7.14615 521.4 0.679688 510.333 0.679688 498.466C0.679688 474.8 25.413 459.413 46.6797 469.813C144.093 517.413 266.973 545.653 400.68 545.653C534.386 545.653 657.266 517.413 754.68 469.813C775.946 459.413 800.68 474.8 800.68 498.466Z" fill="#FFD517"/>
</svg>
