<svg width="20" height="20" viewBox="0 0 20 20" fill="none" xmlns="http://www.w3.org/2000/svg">
<path d="M19.8475 10.2271C19.8475 9.54534 19.7917 8.86606 19.6751 8.19385H10.236V12.0444H15.6416C15.4182 13.2866 14.6969 14.3856 13.6431 15.082V17.5835H16.8703C18.7596 15.8463 19.8475 13.272 19.8475 10.2271Z" fill="#4285F4"/>
<path d="M10.2358 19.9998C12.9362 19.9998 15.2116 19.1143 16.8701 17.5857L13.6429 15.0841C12.7444 15.6932 11.5884 16.0401 10.2358 16.0401C7.62538 16.0401 5.41064 14.2812 4.61661 11.9131H1.29468V14.4897C2.99446 17.8696 6.45248 19.9998 10.2358 19.9998Z" fill="#34A853"/>
<path d="M4.61901 11.913C4.19898 10.6733 4.19898 9.32665 4.61901 8.08454V5.51025H1.29472C-0.125991 8.33672 -0.125991 11.6655 1.29472 14.4922L4.61901 11.913Z" fill="#FBBC04"/>
<path d="M10.2358 3.9601C11.6637 3.93826 13.0406 4.47455 14.075 5.45961L16.9333 2.60626C15.1217 0.907991 12.7225 -0.0261564 10.2358 0.000557557C6.45248 0.000557557 2.9921 2.13314 1.29468 5.51052L4.61897 8.08715C5.41064 5.71667 7.62538 3.9601 10.2358 3.9601Z" fill="#EA4335"/>
</svg>
